<?xml version="1.0" encoding="utf-8"?>
<!-- Generator: Adobe Illustrator 25.0.1, SVG Export Plug-In . SVG Version: 6.00 Build 0)  -->
<svg version="1.1"
	 id="Layer_1" text-rendering="geometricPrecision" shape-rendering="geometricPrecision" image-rendering="optimizeQuality" xmlns:xodm="http://www.corel.com/coreldraw/odm/2003"
	 xmlns="http://www.w3.org/2000/svg" xmlns:xlink="http://www.w3.org/1999/xlink" x="0px" y="0px" viewBox="0 0 339.9 97"
	 style="enable-background:new 0 0 339.9 97;" xml:space="preserve">
<style type="text/css">
	.st0{fill:url(#SVGID_1_);}
	.st1{fill:url(#SVGID_2_);}
	.st2{fill-rule:evenodd;clip-rule:evenodd;fill:url(#SVGID_3_);}
	.st3{fill-rule:evenodd;clip-rule:evenodd;fill:url(#SVGID_4_);}
	.st4{fill-rule:evenodd;clip-rule:evenodd;fill:url(#SVGID_5_);}
	.st5{fill-rule:evenodd;clip-rule:evenodd;fill:url(#SVGID_6_);}
	.st6{fill-rule:evenodd;clip-rule:evenodd;fill:url(#SVGID_7_);}
	.st7{fill-rule:evenodd;clip-rule:evenodd;fill:url(#SVGID_8_);}
	.st8{fill-rule:evenodd;clip-rule:evenodd;fill:url(#SVGID_9_);}
	.st9{fill-rule:evenodd;clip-rule:evenodd;fill:url(#SVGID_10_);}
	.st10{fill-rule:evenodd;clip-rule:evenodd;fill:url(#SVGID_11_);}
	.st11{fill-rule:evenodd;clip-rule:evenodd;fill:url(#SVGID_12_);}
	.st12{fill-rule:evenodd;clip-rule:evenodd;fill:url(#SVGID_13_);}
	.st13{fill-rule:evenodd;clip-rule:evenodd;fill:url(#SVGID_14_);}
	.st14{fill-rule:evenodd;clip-rule:evenodd;fill:#EE7D24;}
	.st15{fill-rule:evenodd;clip-rule:evenodd;fill:#F39C23;}
	.st16{fill:#7C7B7B;}
</style>
<g id="Layer_x0020_1">
	<g id="_1623172585648">
		
			<linearGradient id="SVGID_1_" gradientUnits="userSpaceOnUse" x1="4187.3306" y1="-6256.1587" x2="4881.9971" y2="-5561.5317" gradientTransform="matrix(7.772834e-02 0 0 -7.772834e-02 -294.2036 -419.1044)">
			<stop  offset="0" style="stop-color:#1751A4"/>
			<stop  offset="0.2" style="stop-color:#1E6299"/>
			<stop  offset="0.6588" style="stop-color:#348A75"/>
			<stop  offset="1" style="stop-color:#49AB48"/>
		</linearGradient>
		<path class="st0" d="M81.7,43.3c2.9-3.4,5.2-7.8,6-12.9c0-0.1-0.1-0.2-0.2-0.3c0,0-0.1,0-0.1,0c-4.3,11.6-11.3,17.3-21,21.4
			c-0.4-1.6-0.7-3.2-1-4.9c3.8-1,7.4-2.5,10.4-4.7c3.2-2.4,5.9-5.4,7.9-8.9c1.9-3.4,3.2-6.8,4-10.3c0.2-0.8,0.1-1.1-0.2-1.4
			c0,0-0.1-0.1-0.1-0.1c-0.1-0.1-0.2,0-0.2,0.2c-0.2,1-0.5,1.8-0.8,2.6c-3.9,10.5-10.1,16.8-21.4,19.4c-0.2-1.9-0.2-3.7-0.1-5.5
			c7.9-1.7,14.6-7.2,18.2-14.3c1.7-3.2,2.8-6.7,3.7-10.5c0.1-0.6-0.3-0.9-0.3-0.9c-0.1,0-0.2-0.1-0.2-0.1c-0.2-0.1-0.3-0.1-0.6-0.1
			c-3.9,0.9-7.3,2.1-10.5,3.7c-7.1,3.6-12.6,10.3-14.3,18.1c-1.8,0.1-3.7,0.1-5.5-0.1c2.6-11.2,8.9-17.3,19.3-21.2
			c0.8-0.3,1.6-0.6,2.6-0.8c0.2,0,0.2-0.1,0.2-0.3c0,0-0.1-0.1-0.1-0.1c-0.2-0.3-0.5-0.4-1.4-0.2c-3.5,0.7-6.9,2.1-10.3,4
			c-3.5,2-6.6,4.7-8.9,7.9c-2.1,2.9-3.6,6.6-4.7,10.3c-1.6-0.2-3.2-0.6-4.9-1c4-9.8,9.8-16.7,21.3-20.9c0.1,0,0.1-0.1,0-0.1
			c-0.1-0.1-0.2-0.2-0.3-0.2c-5.1,0.8-9.4,3.1-12.9,6c-4.5,3.8-8.2,8.6-11.1,14.4c-1.4-0.4-2.9-0.9-4.3-1.4
			c-4.3-1.5-15.3-6.5-19.5-10.2c-1.4-1.1-2-1.3-2.7-0.8c-0.2,0.1-0.7,0.6-1,1.1c-1.5,2-3.1,5.5-3.8,7.8c-0.1,0.2,0.3,0.5,0.7,0.3
			c2-0.9,10.5,2.8,13,3.8c1.6,0.6,3.2,1.2,4.9,1.7c3.4,1.1,6.8,2.2,10.3,3c-0.2,0.6-0.4,1.1-0.6,1.7c-0.6,1.7-1.1,3.4-1.5,5.2
			c-8.2-1.2-15.2-3.3-19.7-5.2c-3.2-1.3-5.2-1.7-6.6-0.9c-0.2,0.1-0.5,0.5-0.4,1.1c0.3,2,1,3.9,1.9,5.8c0.7,1.5,1.2,1,1.9,0.8
			c1-0.2,2.3,0.1,3.3,0.3c1.9,0.4,3.9,0.8,5.8,1.3c4.2,0.9,8.5,1.4,12.9,1.7c-0.4,2.3-0.6,4.6-0.7,6.8c-0.6,0-1.1-0.1-1.7-0.1
			c-6.3-0.3-13.4-2.1-15.7-2.7c-0.2-0.1-0.2,0.6,0,0.8c1,1.1,3,3.2,3.5,3.8c1.1,1.3,2.5,2.2,4.2,2.7c2.1,0.7,4.3,0.8,6.4,0.9
			c1,0,2.1,0,3.2,0c0,1.2,0,2.3,0,3.4c0.1,2.1,0.2,4.3,0.9,6.4c0.5,1.7,1.5,3,2.7,4.2C41.9,75,44,77,45.2,78
			c0.2,0.1,0.8,0.2,0.8-0.1c-0.6-2.3-2.4-9.5-2.7-15.7c0-0.6-0.1-1.1-0.1-1.8c2.2-0.1,4.5-0.4,6.8-0.7c0.3,4.4,0.8,8.7,1.7,13
			c0.4,2,0.9,3.9,1.3,5.8c0.2,1,0.5,2.2,0.3,3.3c-0.2,0.7-0.7,1.1,0.9,1.9c1.9,0.9,3.9,1.6,5.8,1.9c0.6,0.1,1-0.1,1.1-0.4
			c0.7-1.4,0.4-3.4-0.9-6.6c-1.9-4.6-4.1-11.6-5.3-19.8c1.8-0.4,3.6-0.9,5.4-1.5c0.5-0.2,1-0.4,1.5-0.6c0.8,3.5,1.9,7,3,10.4
			c0.5,1.7,1.1,3.3,1.7,4.9c1,2.5,4.7,11,3.9,13c-0.2,0.4,0,0.8,0.3,0.7c2.3-0.6,5.8-2.3,7.8-3.8c0.5-0.4,1-0.9,1.1-1
			c0.5-0.7,0.3-1.4-0.8-2.7C75.1,74,70,63,68.5,58.7c-0.5-1.4-1-2.9-1.4-4.3C73.1,51.5,77.9,47.8,81.7,43.3L81.7,43.3L81.7,43.3z
			 M73.8,18.6c3-2.3,6.5-4,10.1-5.2c0.6-0.2,1.2-0.3,1.7-0.5c-0.2,0.5-0.3,1.1-0.5,1.7c-1.2,3.6-2.8,7.1-5.2,10.1
			c-3.8,4.8-9,7.4-14.6,8.5C66.4,27.5,69,22.4,73.8,18.6L73.8,18.6L73.8,18.6z M60,38.4c-0.1,1.7-0.1,3.3-0.1,5c0,0.2,0,0.5,0,0.7
			c-2,0.2-4,0.4-6,0.4c0.1-2,0.2-4.1,0.4-6c0.3,0,0.5,0,0.8,0C56.8,38.6,58.4,38.5,60,38.4L60,38.4z M45.1,37.4
			c1.8,0.3,3.7,0.6,5.6,0.8c-0.4,2.2-0.6,4.3-0.8,6.3c-1.8-0.1-3.5-0.2-5.3-0.3c-0.3,0-0.6-0.1-0.8-0.1
			C44.1,41.8,44.6,39.6,45.1,37.4L45.1,37.4L45.1,37.4z M43,55.4c0-2.2,0.1-4.4,0.3-6.7c2.2,0.1,4.3,0,6.5,0c0,2.2-0.1,4.3,0,6.5
			C47.5,55.3,45.2,55.4,43,55.4L43,55.4L43,55.4z M54.3,54.7c0-0.3,0-0.5-0.1-0.8c-0.2-1.8-0.3-3.6-0.3-5.4c2-0.1,4.1-0.4,6.3-0.7
			c0.2,1.9,0.5,3.7,0.8,5.5C58.8,53.9,56.6,54.4,54.3,54.7L54.3,54.7z"/>
		
			<linearGradient id="SVGID_2_" gradientUnits="userSpaceOnUse" x1="5271.4814" y1="-6597.8755" x2="5271.4814" y2="-5389.207" gradientTransform="matrix(7.772834e-02 0 0 -7.772834e-02 -294.2036 -419.1044)">
			<stop  offset="0" style="stop-color:#1450A2"/>
			<stop  offset="0.5412" style="stop-color:#2F7E73"/>
			<stop  offset="1" style="stop-color:#48A948"/>
		</linearGradient>
		<polygon class="st1" points="114.9,96.7 116.2,96.7 116.2,-0.2 114.9,-0.2 		"/>
		<g id="Layer_x0020_1_1_">
			<g id="_2093971034288">
				<g>
					
						<linearGradient id="SVGID_3_" gradientUnits="userSpaceOnUse" x1="257.6996" y1="102.9414" x2="257.6996" y2="100.1174" gradientTransform="matrix(14.0713 0 0 14.0713 -3463.1768 -1413.6184)">
						<stop  offset="0" style="stop-color:#E94E42"/>
						<stop  offset="0.1412" style="stop-color:#F18A21"/>
						<stop  offset="1" style="stop-color:#F9C700"/>
					</linearGradient>
					<path class="st2" d="M155,12.9c0,0-0.4,0-0.4,0.4l0,0c0,0,0,0-0.5,0l0,0l0,0c-0.5,1.3-0.9,3,0,5.7v0.4c0,0,0-0.4,0.5-0.9
						c0-0.5,0.4-0.5,0.9-0.9c0.5-0.5,0.9-0.5,1.6-0.5l0,0l0,0c0,0,0,0,0.5,0l0,0l0,0c0.5,0,0.5,0,0.5,0s0,0,0,0.5l0,0h0.5l0,0l0,0
						h0.4l0,0c0,0,0,0,0.5,0.5l0,0c0,0,0,0,0.5,0l0,0l0,0c0,0,0,0,0.5,0.5l0,0l0,0l0,0h0.4l0,0c0,0,0,0,0,0.4c0.5,0,0.5,0,0.5,0
						c1.8,1.3,3.9,3,5.5,5.7c0,0,0.5,0.4,0.5,0.9c0.5,0.4,0.9,0.9,1.3,1.3c0.5,1.2,1.3,2,1.8,3.4c0,0,0,0.5,0.4,0.5v0.5v0.5
						c0.5,0,0.5,0,0.5,0c0,0.4,0,0.4,0,0.4l0,0c0,0.5,0,0.5,0,0.5l0,0c0.5,0,0.5,0.5,0.5,0.5v0.4l0,0c0,0.4,0.5,0.4,0.5,0.4l0,0
						c0,0.9,0.4,1.3,0.4,2.1c0-0.9,0-1.6,0-2.5l0,0c0-0.9,0-1.3,0-2.1c-0.4-0.5-0.4-0.9-0.9-1.8l0,0c0-0.5,0-0.5,0-0.5l0,0l0,0
						c0-0.4,0-0.4,0-0.4c-0.5-0.5-0.5-0.5-0.5-0.5l0,0c0-0.5,0-0.5,0-0.5s0,0,0-0.5h-0.4c0-0.4,0-0.4,0-0.4s0,0,0-0.5l0,0l0,0
						c0,0-0.5,0-0.5-0.5l0,0l0,0v-0.5l0,0c-0.5,0-0.5-0.5-0.5-0.5s0,0,0-0.4l0,0c0,0,0,0-0.5,0l0,0l0,0c0-0.5,0-0.9-0.4-0.9
						c0,0,0,0,0-0.5c0,0-0.5-0.5-0.5-0.9l0,0l-0.5-0.5l0,0c-0.9-1.8-2.1-3-3.4-4.3c0,0,0,0,0-0.5c0,0,0,0,0,0.5c0-0.5,0-0.5-0.4-0.5
						c-0.5-0.5-0.5-0.9-0.9-1.3c-0.9-0.5-1.3-0.9-1.8-1.3l0,0l0,0l-0.4-0.3c-0.5,0-0.5-0.4-0.9-0.4c-2.1-1.3-3.9-1.8-5.1-0.9l0,0
						H155L155,12.9z"/>
					
						<linearGradient id="SVGID_4_" gradientUnits="userSpaceOnUse" x1="256.8712" y1="102.9414" x2="256.8712" y2="100.0647" gradientTransform="matrix(14.0713 0 0 14.0713 -3463.1768 -1413.6184)">
						<stop  offset="0" style="stop-color:#E94E42"/>
						<stop  offset="0.1412" style="stop-color:#F18A21"/>
						<stop  offset="1" style="stop-color:#F9C700"/>
					</linearGradient>
					<path class="st3" d="M138.3,21.9c0,0.4-0.4,0.4-0.4,0.9l0,0l0,0v0.5l0,0c0,1.2,0.9,3,2.5,4.3c0,0.5,0,0.5,0.5,0.9
						c0-0.5,0-0.9-0.5-0.9c0-0.5,0.5-0.9,0.5-1.3c0.5-0.5,0.9-0.9,1.3-1.3l0,0c0,0,0,0,0.5,0l0,0c0,0,0-0.5,0.4-0.5l0,0l0,0l0,0
						c0,0,0,0,0.5,0l0,0l0,0c0.5,0,0.5,0,0.5,0l0,0h0.5l0,0c0,0,0,0,0.4,0l0,0l0,0h0.5l0,0c0.5,0,0.5,0,0.5,0l0,0l0,0c0,0,0,0,0.5,0
						l0,0l0,0c0.4,0,0.4,0,0.4,0c2.1,0,4.8,0.9,7.8,1.8c0,0.5,0.4,0.5,0.9,0.5c0.4,0.4,0.9,0.4,1.6,0.9c0.9,0.9,2.1,1.3,3,2.1
						c0.4,0,0.4,0,0.4,0c0.5,0,0.5,0.5,0.5,0.5h0.5c0,0.4,0,0.4,0,0.4c0.5,0,0.5,0,0.5,0l0,0c0,0.5,0.4,0.5,0.4,0.5l0,0
						c0,0,0.5,0,0.5,0.5l0,0c0.5,0,0.5,0,0.5,0c0,0.5,0,0.5,0.5,0.5l0,0c0.4,0.4,0.9,0.9,1.3,1.2c-0.5-0.4-0.5-1.2-1.3-2.1l0,0
						c0-0.4-0.5-0.9-1.3-1.6c0-0.5-0.5-0.9-1.3-1.3l0,0c0,0,0,0-0.5,0c0,0,0,0,0-0.5l0,0c0,0,0,0-0.4,0v-0.5l0,0c-0.5,0-0.5,0-0.5,0
						c0-0.4,0-0.4-0.5-0.4l0,0c0-0.5-0.5-0.5-0.5-0.5l0,0l0,0h-0.4c0-0.5,0-0.5,0-0.5s0,0-0.5,0l0,0l0,0c0-0.5,0-0.5-0.5-0.5l0,0
						c0,0-0.5,0-0.5-0.4l0,0c0,0,0,0-0.4,0l0,0l0,0l-0.5-0.5c-0.5,0-0.5,0-0.5,0c-0.5-0.5-0.5-0.5-0.9-0.9c0,0,0,0-0.5,0l0,0h-0.5
						c-1.6-0.9-3.4-1.8-4.6-2.1h-0.5l0,0V21c-0.9,0-1.3,0-1.8-0.5c-0.9,0-1.2,0-2.1-0.4l0,0l0,0c0,0-0.4,0-0.9,0c0,0-0.4,0-0.9,0
						c-2.1,0-4.3,0.4-4.6,1.6l0,0L138.3,21.9L138.3,21.9z"/>
					
						<linearGradient id="SVGID_5_" gradientUnits="userSpaceOnUse" x1="255.3276" y1="103.0946" x2="252.1935" y2="103.0946" gradientTransform="matrix(14.0713 0 0 14.0713 -3463.1768 -1413.6184)">
						<stop  offset="0" style="stop-color:#E94E42"/>
						<stop  offset="0.1412" style="stop-color:#F18A21"/>
						<stop  offset="1" style="stop-color:#F9C700"/>
					</linearGradient>
					<path class="st4" d="M128.4,38.6v0.5l0,0v0.4l0,0l0,0c0.9,1.3,2.1,2.1,4.4,3c0.4,0,0.9,0,0.9,0l-0.5-0.5
						c-0.5-0.5-0.5-0.9-0.5-1.3c0-0.9,0-1.3,0.5-1.6l0,0c0-0.5,0-0.5,0-0.5h0.5c0,0,0,0,0-0.5l0,0l0,0h0.4l0,0v-0.5l0,0
						c0.5,0,0.5,0,0.5,0l0,0v-0.4c0.5,0,0.5,0,0.5,0l0,0h0.5v-0.5l0,0h0.4l0,0l0,0c0,0,0,0,0-0.5c0.5,0,0.5,0,0.5,0l0,0l0,0
						c0.5,0,0.5,0,0.5,0c2.1-1.3,4.8-1.8,7.7-2.1c0,0,0.5,0,0.9,0c0.5,0,1.3-0.5,1.8-0.5c1.3,0,2.5,0,3.8,0c0.5,0,0.5,0,0.5,0
						c0.5,0,0.5,0,0.5,0c0.5,0,0.5,0.5,0.5,0.5c0.4,0,0.4,0,0.4,0h0.5l0,0l0,0c0.5,0,0.5,0,0.5,0h0.5c0,0,0,0,0.4,0l0,0
						c0.5,0,0.5,0,0.5,0l0,0c0.9,0.5,1.3,0.5,2.1,0.5c-0.9-0.5-1.3-0.9-2.1-1.3l0,0c-0.9,0-1.3-0.5-2.1-0.5
						c-0.5-0.5-0.9-0.5-1.6-0.9l0,0c-0.5,0-0.5,0-0.5,0l0,0l0,0c-0.5,0-0.5,0-0.5,0c-0.5,0-0.5,0-0.5,0l0,0c-0.4,0-0.4,0-0.4,0h-0.5
						c0,0,0,0-0.5,0v-0.5c-0.5,0-0.5,0-0.5,0l0,0l0,0c-0.4,0-0.4,0-0.4,0l0,0c-0.5,0-0.5,0-0.5,0l0,0c0,0,0,0-0.5,0l0,0
						c-0.5,0-0.5,0-0.5,0l0,0c-0.4,0-0.4,0-0.4,0l0,0l0,0c-0.5,0-0.5,0-0.9,0h-0.4c-0.5,0-0.5,0-0.9,0h-0.5l0,0c-0.5,0-0.5,0-0.5,0
						c-1.8,0-3.9,0.5-5.1,0.9c-0.5,0-0.5,0-0.5,0l0,0c0,0,0,0-0.5,0s-0.9,0.5-1.6,0.5c-0.5,0.5-0.9,0.5-1.8,0.9l0,0l0,0
						c0,0-0.5,0-0.9,0c0,0.5-0.5,0.5-0.5,0.5c-2.1,1.3-3.4,2.6-3.4,4.3l0,0L128.4,38.6L128.4,38.6z"/>
					
						<linearGradient id="SVGID_6_" gradientUnits="userSpaceOnUse" x1="255.354" y1="103.9876" x2="252.5366" y2="103.9876" gradientTransform="matrix(14.0713 0 0 14.0713 -3463.1768 -1413.6184)">
						<stop  offset="0" style="stop-color:#E94E42"/>
						<stop  offset="0.1412" style="stop-color:#F18A21"/>
						<stop  offset="1" style="stop-color:#F9C700"/>
					</linearGradient>
					<path class="st5" d="M127.9,57.5c0,0.5,0.5,0.5,0.5,0.9l0,0l0,0h0.5l0,0c0.9,0.9,3,0.9,5.1,0.5l0.5-0.5h-0.5
						c-0.4-0.5-0.9-0.9-1.2-0.9c-0.5-0.9-0.5-1.3-0.5-2.1l0,0l0,0l0,0c0-0.5,0-0.5,0.5-0.5l0,0l0,0c0-0.5,0-0.5,0-0.5l0,0
						c0,0,0,0,0-0.4l0,0l0,0c0,0,0,0,0-0.5c0,0,0,0,0.4,0l0,0c0-0.5,0-0.5,0-0.5l0,0l0,0c0-0.5,0-0.5,0-0.5c0.5,0,0.5,0,0.5,0
						c0-0.4,0-0.4,0-0.4l0,0l0,0l0,0c0-0.5,0.5-0.5,0.5-0.5l0,0v-0.5c1.3-1.8,3.4-3.4,5.5-5.5c0.5,0,0.5,0,0.9-0.5
						c0.5-0.5,0.9-0.5,1.3-0.9c1.3-0.9,2.6-1.8,3.4-2.1c0.5,0,0.5,0,0.5,0c0.4-0.5,0.4-0.5,0.4-0.5h0.5c0,0,0,0,0.5,0
						c0-0.4,0-0.4,0-0.4h0.5l0,0l0,0c0.4,0,0.4-0.5,0.4-0.5c0.5,0,0.5,0,0.5,0s0,0,0.5,0l0,0l0,0c0.9-0.5,1.3-0.5,2.1-0.9
						c-0.9,0-1.8,0-2.6,0l0,0c-0.5,0-1.3,0-2.1,0.4c-0.5,0-0.9,0-1.8,0.5l0,0H144l0,0l0,0l-0.5,0.5c0,0,0,0-0.5,0l0,0h-0.5
						c0,0,0,0.5-0.4,0.5l0,0h-0.5l0,0l0,0c-0.5,0.5-0.5,0.5-0.5,0.5l0,0c-0.5,0-0.5,0-0.5,0l0,0l0,0c-0.4,0-0.4,0.4-0.4,0.4
						s0,0-0.5,0l0,0l0,0c-0.5,0.5-0.5,0.5-0.5,0.5l0,0l0,0c-0.5,0-0.5,0-0.9,0.5l0,0c-0.5,0-0.9,0.5-0.9,0.5c-0.5,0-0.5,0.4-0.5,0.4
						l0,0c-0.5,0-0.5,0-0.5,0c-1.6,1.3-3,2.1-4.3,3.4l0,0l0,0l-0.4,0.4c-0.4,0.5-0.9,0.9-1.2,1.3c-0.5,0.4-0.9,0.9-1.3,1.3l0,0l0,0
						c0,0.4,0,0.4-0.5,0.9l-0.5,0.4C127.4,54.4,127.1,56.2,127.9,57.5L127.9,57.5L127.9,57.5L127.9,57.5z"/>
					
						<linearGradient id="SVGID_7_" gradientUnits="userSpaceOnUse" x1="255.7235" y1="104.8061" x2="256.6472" y2="104.8061" gradientTransform="matrix(14.0713 0 0 14.0713 -3463.1768 -1413.6184)">
						<stop  offset="0" style="stop-color:#E94E42"/>
						<stop  offset="0.1412" style="stop-color:#F18A21"/>
						<stop  offset="1" style="stop-color:#F9C700"/>
					</linearGradient>
					<path class="st6" d="M137,74.2c0.5,0.5,0.9,0.5,0.9,0.5l0,0c0,0,0,0,0.4,0l0,0l0,0c1.3,0,3-0.9,4.8-2.1c0-0.5,0.5-0.5,0.5-0.9
						c-0.5,0.4-0.5,0.4-0.9,0.4c-0.5,0-0.9,0-1.3-0.4c-0.5,0-0.9-0.9-1.3-1.3l0,0l0,0v-0.5l0,0v-0.5c-0.5,0-0.5,0-0.5,0l0,0l0,0
						c0-0.4,0-0.4,0-0.4l0,0l0,0c0-0.5,0-0.5,0-0.5l0,0c0-0.5,0-0.5,0-0.5l0,0c0-0.5,0-0.5,0-0.5l0,0l0,0c0-0.4,0-0.4,0-0.4
						s0,0,0-0.5l0,0l0,0l0,0v-0.5l0,0v-0.5c0-2.1,0.9-4.6,2.1-7.3c0-0.5,0-0.9,0-0.9c0.5-0.9,0.9-1.3,0.9-1.8
						c0.9-1.3,1.3-2.6,2.1-3.4v-0.4c0.5,0,0.5-0.5,0.5-0.5s0-0.5,0.5-0.5l0,0v-0.5c0.4,0,0.4,0,0.4,0l0,0c0-0.4,0-0.4,0-0.4
						s0.5,0,0.5-0.5l0,0c0,0,0,0,0.5-0.5l0,0l0,0c0.5-0.9,0.9-1.3,1.3-1.8c-0.5,0.5-1.3,0.9-2.1,1.3l0,0c-0.5,0.5-0.9,0.9-1.3,1.3
						s-0.9,0.9-1.3,1.3c-0.5,0.1-0.5,0.1-0.5,0.1v0.5l0,0l0,0c-0.4,0-0.4,0.5-0.4,0.5l0,0c-0.5,0-0.5,0.4-0.5,0.4l0,0l-0.5,0.5l0,0
						c0,0.5,0,0.5-0.5,0.5c0,0,0,0,0,0.5l0,0l0,0c0,0,0,0-0.4,0c0,0.4,0,0.4,0,0.4l0,0l0,0c0,0.5,0,0.5-0.5,0.5c0,0,0,0,0,0.5l0,0
						l0,0c-0.5,0-0.5,0.5-0.5,0.5l0,0l0,0c0,0-0.5,0.4-0.5,0.9l0,0c-0.4,0.4-0.4,0.9-0.4,0.9l-0.5,0.5l0,0c0,0.4,0,0.4,0,0.4
						c-0.9,1.8-1.8,3.4-2.1,4.8c0,0.5,0,0.5,0,0.5l0,0c0,0,0,0,0,0.4c-0.5,0.5-0.5,0.9-0.5,1.8c-0.5,0.5-0.5,1.3-0.5,1.8l0,0l0,0
						c0,0.4,0,0.4-0.4,0.9c0,0.5,0,0.5,0,0.9c0,2.6,0.4,4.3,1.6,4.8l0,0h0.2V74.2z"/>
					
						<linearGradient id="SVGID_8_" gradientUnits="userSpaceOnUse" x1="256.9345" y1="102.9546" x2="256.9345" y2="106.0557" gradientTransform="matrix(14.0713 0 0 14.0713 -3463.1768 -1413.6184)">
						<stop  offset="0" style="stop-color:#E94E42"/>
						<stop  offset="0.1412" style="stop-color:#F18A21"/>
						<stop  offset="1" style="stop-color:#F9C700"/>
					</linearGradient>
					<path class="st7" d="M153.8,84h0.4h0.5l0,0l0,0l0,0c1.3-0.9,2.1-2.1,3-4.3c0-0.5,0-0.5,0-0.9c0,0.4-0.5,0.4-0.5,0.4
						c-0.5,0.5-0.9,0.5-1.3,0.5c-0.9,0-1.3,0-1.8-0.5l0,0l0,0c-0.4,0-0.4,0-0.4,0c0-0.4,0-0.4,0-0.4s0,0-0.5,0l0,0l0,0
						c0,0,0,0,0-0.5l0,0c-0.5,0-0.5,0-0.5,0l0,0c0-0.5,0-0.5,0-0.5l0,0c0,0-0.5,0-0.5-0.5l0,0l0,0c0-0.4,0-0.4,0-0.4s0,0-0.4,0
						c0,0,0,0,0-0.5l0,0l0,0l0,0c0,0,0,0,0-0.5c-0.5,0-0.5,0-0.5,0l0,0c0-0.5,0-0.5,0-0.5c-0.9-2.1-1.8-4.6-2.1-7.3
						c0-0.5,0-0.9,0-0.9c0-0.9,0-1.3,0-2.1c-0.5-1.2-0.5-2.5,0-3.8v-0.4v-0.5v-0.5c0,0,0,0,0-0.5c0,0,0,0,0-0.4l0,0l0,0
						c0,0,0,0,0-0.5c0,0,0,0,0-0.5l0,0c0-0.5,0-0.5,0-0.5l0.5-0.4l0,0c0-0.5,0-1.3,0.4-1.8c-0.9,0.5-1.2,0.9-1.6,1.8l0,0
						c0,0.9-0.5,1.2-0.5,2.1c-0.5,0.4-0.5,0.9-0.5,1.6c0,0,0,0,0,0.5h-0.4l0,0l0,0c0,0.5,0,0.5,0,0.9l0,0c0,0,0,0,0,0.5l0,0
						c0,0.4,0,0.4,0,0.4v0.5c0,0,0,0,0,0.5l0,0l0,0c0,0,0,0,0,0.5l0,0c-0.5,0-0.5,0-0.5,0.4l0,0l0,0c0,0.5,0,0.5,0,0.5s0,0,0,0.5
						l0,0c0,0.5,0,0.5,0,0.5l0,0l0,0l0,0c0,0.5,0,0.9,0,0.9c0,0.5,0,0.5,0,0.5c0,0.4,0,0.9,0,0.9c0,0.4,0,0.4,0,0.4s0,0,0,0.5l0,0
						c0.5,2.1,0.5,3.9,0.9,5.5l0,0l0,0v0.5c0.5,0.5,0.5,1.3,0.5,1.8c0.4,0.5,0.4,1.3,0.9,1.6l0,0l0,0c0,0.5,0,0.5,0.4,0.9
						c0,0,0,0.5,0,0.9C150.7,83.1,151.9,84.4,153.8,84L153.8,84L153.8,84L153.8,84z"/>
					
						<linearGradient id="SVGID_9_" gradientUnits="userSpaceOnUse" x1="255.1434" y1="103.1743" x2="258.2577" y2="106.2491" gradientTransform="matrix(14.0713 0 0 14.0713 -3463.1768 -1413.6184)">
						<stop  offset="0" style="stop-color:#E94E42"/>
						<stop  offset="0.1412" style="stop-color:#F18A21"/>
						<stop  offset="1" style="stop-color:#F9C700"/>
					</linearGradient>
					<path class="st8" d="M172.6,84.5c0.4,0,0.4,0,0.9-0.5l0,0l0,0l0,0l0,0c0.9-1.3,0.9-3,0.5-5.1c0-0.5,0-0.9,0-0.9
						c-0.5,0.4-0.5,0.4-0.5,0.9c-0.5,0.4-0.5,0.4-0.9,0.9c-0.5,0.4-1.3,0.4-1.8,0.4l0,0c-0.5,0-0.5,0-0.5,0l0,0H170l0,0l0,0
						c0,0,0,0-0.5,0v-0.4l0,0h-0.5l0,0c0,0,0,0-0.5,0l0,0l0,0c0-0.5,0-0.5-0.4-0.5l0,0l0,0c0,0,0,0-0.5,0c0,0,0,0,0-0.5
						c0,0,0,0-0.5,0l0,0l0,0l0,0c0,0,0,0-0.5,0c0,0,0,0,0-0.5c0,0,0,0-0.4,0c-1.8-1.2-3.4-3-5.2-5.5c-0.5,0-0.5-0.4-0.9-0.4
						c0-0.9-0.5-1.3-0.9-1.8c-0.9-1.3-1.3-2.1-2.1-3.4v-0.5c0,0,0-0.4-0.5-0.4v-0.5l0,0c0-0.5,0-0.5-0.5-0.5l0,0V65l0,0v-0.4
						c-0.4,0-0.4-0.5-0.4-0.5l0,0c0-0.5,0-0.5,0-0.5l0,0c-0.5-0.9-0.5-1.3-0.9-2.1c0,0.9,0,1.8,0,2.6l0,0c0,0.9,0,1.3,0.4,2.1
						c0,0.5,0.5,0.9,0.5,1.6c0,0,0,0,0,0.5l0,0l0,0c0,0,0,0,0.5,0c0,0.5,0,0.5,0,0.5c0,0.5,0,0.5,0,0.5l0,0c0,0.4,0,0.4,0.5,0.4v0.5
						l0,0c0,0.5,0,0.5,0,0.5s0.4,0,0.4,0.5l0,0l0,0c0,0,0,0,0,0.4l0,0l0,0c0.5,0,0.5,0.5,0.5,0.5l0,0v0.5c0,0,0,0,0.5,0.5l0,0l0,0
						l0,0l0,0c0,0.4,0.5,0.9,0.5,0.9s0,0,0,0.5c0.4,0,0.4,0.4,0.9,0.9l0,0v0.4c0,0,0,0,0.4,0c0.9,1.8,2.1,3,3,4.4c0,0,0,0,0,0.4l0,0
						c0.5,0,0.5,0,0.5,0c0.4,0.5,0.9,0.9,1.3,1.3c0.4,0.5,0.9,0.9,1.2,1.3l0,0l0,0c0.5,0,0.5,0.5,0.9,0.5l0.5,0.5
						C169.5,84.9,171.8,85.3,172.6,84.5L172.6,84.5L172.6,84.5L172.6,84.5z"/>
					
						<linearGradient id="SVGID_10_" gradientUnits="userSpaceOnUse" x1="255.3276" y1="105.486" x2="258.4617" y2="105.486" gradientTransform="matrix(14.0713 0 0 14.0713 -3463.1768 -1413.6184)">
						<stop  offset="0" style="stop-color:#E94E42"/>
						<stop  offset="0.1412" style="stop-color:#F18A21"/>
						<stop  offset="1" style="stop-color:#F9C700"/>
					</linearGradient>
					<path class="st9" d="M189.8,75.5c0-0.5,0-0.5,0-0.9l0,0l0,0v-0.5l0,0c0-1.3-0.9-3-2.1-4.3c-0.5-0.5-0.5-0.5-0.5-0.9
						c0,0.4,0,0.9,0,0.9c0,0.4,0,0.9-0.5,1.2c0,0.5-0.5,0.9-1.3,1.3l0,0l0,0l0,0c-0.5,0.5-0.5,0.5-0.5,0.5l0,0h-0.4l0,0l0,0h-0.5
						l0,0l0,0h-0.5l0,0h-0.5l0,0h-0.4l0,0l0,0h-0.5l0,0l0,0c-0.5,0-0.5,0-0.5,0l0,0l0,0c-0.5,0-0.5,0-0.5,0H181
						c-2.1,0-4.8-0.9-7.3-1.8c-0.4-0.4-0.4-0.4-0.9-0.4c-0.5-0.5-1.3-0.5-1.6-0.9c-1.3-0.5-2.1-1.3-3.4-2.1h-0.5c0,0,0-0.5-0.5-0.5
						c0,0,0,0-0.4,0c0-0.5,0-0.5,0-0.5H166l0,0v-0.5c0,0,0,0-0.5,0c0,0,0,0,0-0.4c-0.5,0-0.5,0-0.5,0l0,0c-0.3-0.4-0.3-0.4-0.3-0.4
						l0,0c-0.5-0.5-0.9-0.9-1.3-1.3c0,0.9,0.4,1.3,0.9,2.1l0,0c0.5,0.5,0.9,0.9,1.3,1.8c0.4,0.4,0.9,0.9,1.2,1.2c0,0,0,0,0.5,0l0,0
						c0,0.5,0,0.5,0,0.5l0,0c0.5,0,0.5,0,0.5,0c0,0.5,0,0.5,0,0.5c0.5,0,0.5,0,0.5,0l0,0c0.4,0.5,0.4,0.5,0.4,0.5s0,0,0.5,0
						c0,0.4,0,0.4,0,0.4h0.5l0,0l0,0c0,0.5,0,0.5,0.5,0.5l0,0l0,0h0.5c0,0.5,0,0.5,0,0.5s0,0,0.4,0c0,0,0,0,0,0.5l0,0
						c0.5,0,0.5,0,0.5,0l0,0l0,0c0.5,0,0.5,0.4,0.9,0.4l0,0c0.5,0.5,0.9,0.5,0.9,0.9c0.5,0,0.5,0,0.5,0s0,0,0.5,0l0,0
						c1.6,0.9,3.4,1.6,5.1,2.1l0,0l0,0l0.5,0.4c0.5,0,1.3,0,1.6,0.5c0.5,0,1.3,0,1.8,0.5l0,0l0,0c0.5,0,0.5,0,0.9,0
						c0.5,0,0.5,0,0.9,0C187.2,77.2,188.9,76.7,189.8,75.5L189.8,75.5L189.8,75.5L189.8,75.5z"/>
					
						<linearGradient id="SVGID_11_" gradientUnits="userSpaceOnUse" x1="255.3276" y1="104.7498" x2="258.4617" y2="104.7498" gradientTransform="matrix(14.0713 0 0 14.0713 -3463.1768 -1413.6184)">
						<stop  offset="0" style="stop-color:#E94E42"/>
						<stop  offset="0.1412" style="stop-color:#F18A21"/>
						<stop  offset="1" style="stop-color:#F9C700"/>
					</linearGradient>
					<path class="st10" d="M199.6,58.7c0,0,0-0.5-0.5-0.5l0,0c0,0,0,0,0-0.5l0,0l0,0c-0.5-1.3-2.1-2.1-4.3-3c-0.5,0-0.5,0-0.9,0
						c0.5,0,0.5,0.4,0.9,0.4c0,0.5,0,0.9,0.4,1.3c0,0.9-0.4,1.3-0.9,1.8l0,0c0,0.5,0,0.5,0,0.5l0,0c0,0,0,0-0.5,0.4l0,0l0,0l0,0l0,0
						c-0.4,0-0.4,0.5-0.4,0.5l0,0l0,0h-0.5c0,0.5,0,0.5,0,0.5l0,0c-0.5,0-0.5,0-0.5,0l0,0c0,0.5,0,0.5,0,0.5h-0.5l0,0h-0.4l0,0
						c0,0,0,0,0,0.4l0,0h-0.5l0,0c0,0-0.5,0-0.5,0.5c-2.1,0.9-4.6,1.3-7.3,1.8c-0.5,0-0.9,0-0.9,0c-0.9,0.5-1.3,0.5-2.1,0.5
						c-1.3,0-2.6,0-3.9,0h-0.5h-0.3c0,0-0.5,0-0.5-0.5l0,0c-0.5,0-0.5,0-0.5,0h-0.5l0,0l0,0c-0.4,0-0.4,0-0.9,0l0,0h-0.4
						c0,0,0,0-0.5,0c-0.5-0.5-1.3-0.5-1.8-0.5c0.5,0.5,1.3,0.9,2.1,1.3l0,0c0.5,0,0.9,0.5,1.8,0.5c0.5,0.4,1.3,0.4,1.6,0.9h0.5l0,0
						l0,0c0.5,0,0.5,0,0.5,0s0,0,0.5,0l0,0h0.4l0,0c0.5,0,0.5,0,0.5,0c0.5,0,0.5,0,0.5,0c0,0.5,0,0.5,0.5,0.5l0,0l0,0
						c0.4,0,0.4,0,0.4,0l0,0c0.5,0,0.5,0,0.5,0l0,0c0,0,0,0,0.5,0l0,0h0.5c0,0,0,0,0.4,0l0,0l0,0c0,0,0,0,0.5,0l0,0c0,0,0.5,0,0.9,0
						l0,0c0.5,0,0.9,0,1.3,0l0,0h0.5l0,0c2.1,0,3.8-0.5,5.5-0.9l0,0l0,0c0.5,0,0.5,0,0.5,0c0.5,0,1.3-0.4,1.6-0.4
						c0.9-0.5,1.3-0.5,1.8-0.9l0,0l0,0c0.5,0,0.5,0,0.9,0c0.5-0.5,0.5-0.5,0.9-0.5C198.3,61.8,199.6,60.5,199.6,58.7L199.6,58.7
						L199.6,58.7z"/>
					
						<linearGradient id="SVGID_12_" gradientUnits="userSpaceOnUse" x1="257.778" y1="105.5715" x2="260.8792" y2="102.7145" gradientTransform="matrix(14.0713 0 0 14.0713 -3463.1768 -1413.6184)">
						<stop  offset="0" style="stop-color:#E94E42"/>
						<stop  offset="0.1412" style="stop-color:#F18A21"/>
						<stop  offset="1" style="stop-color:#F9C700"/>
					</linearGradient>
					<path class="st11" d="M200,39.9c-0.5-0.5-0.5-0.5-0.9-0.9l0,0l0,0l0,0l0,0c-1.3-0.9-3-0.9-5.2-0.5c-0.4,0-0.4,0.5-0.9,0.5
						c0.5,0,0.5,0,0.9,0c0.5,0.4,0.9,0.9,0.9,0.9c0.4,0.9,0.4,1.2,0.4,2.1l0,0l0,0l0,0c0,0.4,0,0.4,0,0.4l0,0c0,0,0,0,0,0.5l0,0l0,0
						c0,0,0,0-0.4,0.5l0,0l0,0v0.5l0,0l0,0c0,0.4,0,0.4,0,0.4c-0.5,0-0.5,0-0.5,0s0,0,0,0.5l0,0l0,0c0,0.5,0,0.5-0.5,0.5l0,0l0,0
						l0,0c0,0.5,0,0.5,0,0.5l0,0c-0.5,0-0.5,0.4-0.5,0.4c-1.3,1.8-3,3.4-5.5,5.7c0,0-0.5,0-0.5,0.4c-0.4,0.5-1.2,0.9-1.6,0.9
						c-0.9,0.9-2.1,1.8-3.4,2.1c0,0,0,0-0.5,0c0,0.5,0,0.5-0.5,0.5c0,0,0,0-0.4,0l0,0c0,0.5-0.5,0.5-0.5,0.5l0,0l0,0
						c-0.5,0-0.5,0-0.5,0l-0.5,0.5l0,0c-0.4,0-0.4,0-0.4,0h-0.5l0,0c-0.9,0.4-1.3,0.4-1.8,0.9c0.5,0,1.3,0,2.1,0l0,0
						c0.9,0,1.3,0,2.1-0.5c0.5,0,1.3,0,1.8-0.5c0,0,0,0,0.5,0l0,0l0,0c0,0,0,0,0.4,0c0,0,0-0.5,0.5-0.5l0,0c0,0,0,0,0.5,0l0,0
						c0,0,0.5,0,0.5-0.4c0,0,0,0,0.4,0l0,0h0.5l0,0V55h0.5l0,0c0,0,0,0,0.5,0l0,0v-0.5c0.4,0,0.4,0,0.4,0h0.5l0,0c0-0.5,0-0.5,0-0.5
						l0,0c0.5,0,0.5,0,0.5,0s0.5,0,0.5-0.4h0.4c0.5,0,0.5-0.5,0.9-0.5c0,0,0,0,0-0.5c0.4,0,0.4,0,0.4,0l0,0c1.8-1.3,3-2.1,4.4-3.4
						c0.4,0,0.4,0,0.4,0l0,0V49c0.5-0.5,0.9-0.9,1.3-1.3s0.9-0.9,1.3-1.3l0,0l0,0c0.5,0,0.5-0.5,0.5-0.9c0.5,0,0.5-0.5,0.5-0.5
						C200,42.9,200.4,41.1,200,39.9L200,39.9L200,39.9z"/>
					
						<linearGradient id="SVGID_13_" gradientUnits="userSpaceOnUse" x1="257.1328" y1="104.9081" x2="260.2669" y2="102.0314" gradientTransform="matrix(14.0713 0 0 14.0713 -3463.1768 -1413.6184)">
						<stop  offset="0" style="stop-color:#E94E42"/>
						<stop  offset="0.1412" style="stop-color:#F18A21"/>
						<stop  offset="1" style="stop-color:#F9C700"/>
					</linearGradient>
					<path class="st12" d="M190.6,23.2c-0.5-0.5-0.5-0.5-0.9-0.5l0,0l0,0l0,0l0,0c-1.8,0-3,0.9-4.8,2.1c-0.5,0.4-0.5,0.4-0.9,0.9
						c0.5-0.5,0.9-0.5,0.9-0.5c0.9,0,1.3,0,1.3,0.5c0.9,0.5,1.3,0.9,1.3,1.3l0,0l0,0c0.4,0,0.4,0.4,0.4,0.4l0,0v0.5l0,0l0,0l0,0
						c0,0.5,0,0.5,0,0.5l0,0l0,0c0,0.5,0,0.5,0,0.5l0,0c0.5,0.4,0.5,0.4,0.5,0.4l0,0c0,0.5,0,0.5,0,0.5l0,0l0,0c0,0.5,0,0.5,0,0.5
						s0,0,0,0.5l0,0l0,0l0,0V31l0,0c0,0,0,0.5-0.5,0.5c0,2.1-0.9,4.8-1.6,7.3c0,0.4-0.5,0.9-0.5,0.9c-0.5,0.9-0.5,1.3-0.9,1.6
						c-0.5,1.3-1.3,2.6-1.8,3.4c-0.5,0-0.5,0.5-0.5,0.5s0,0.5-0.4,0.5v0.4l0,0c-0.5,0-0.5,0.5-0.5,0.5l0,0l0,0
						c0,0.5-0.5,0.5-0.5,0.5s0,0,0,0.5H181v0.4h-0.4l0,0c-0.5,0.9-0.9,1.3-1.3,1.8c0.9-0.5,1.3-0.9,2.1-1.3l0,0
						c0.5-0.5,1.3-0.9,1.6-1.3c0.5-0.4,0.9-0.9,1.3-1.3l0,0l0.5-0.4l0,0l0,0c0,0,0-0.5,0.5-0.5l0,0c0,0,0,0,0-0.5h0.5v-0.5
						c0,0,0,0,0.4,0c0-0.4,0-0.4,0-0.4s0,0,0-0.5l0,0c0.5,0,0.5,0,0.5,0l0,0c0-0.5,0-0.5,0-0.5l0,0c0.5,0,0.5,0,0.5,0
						c0-0.5,0-0.5,0-0.5l0,0c0.5-0.4,0.5-0.4,0.5-0.4l0,0v-0.5l0,0l0,0c0.4,0,0.4-0.5,0.4-0.9h0.5c0-0.5,0-0.9,0.5-0.9V39l0,0
						c0-0.5,0.5-0.5,0.5-0.5c0.9-1.6,1.2-3.4,1.6-4.8c0.5-0.4,0.5-0.4,0.5-0.4l0,0c0,0,0,0,0-0.5c0-0.5,0.5-0.9,0.5-1.8
						c0-0.4,0.4-1.2,0.4-1.6l0,0l0,0c0-0.5,0-0.5,0-0.9c0-0.5,0-0.5,0-0.9c0-2.6-0.4-4.4-1.6-4.8l0,0L190.6,23.2L190.6,23.2z"/>
					
						<linearGradient id="SVGID_14_" gradientUnits="userSpaceOnUse" x1="258.5874" y1="102.948" x2="258.5874" y2="100.1042" gradientTransform="matrix(14.0713 0 0 14.0713 -3463.1768 -1413.6184)">
						<stop  offset="0" style="stop-color:#E94E42"/>
						<stop  offset="0.1412" style="stop-color:#F18A21"/>
						<stop  offset="1" style="stop-color:#F9C700"/>
					</linearGradient>
					<path class="st13" d="M174.3,13.3c-0.4,0-0.4,0-0.9,0l0,0l0,0H173l0,0c-0.9,0.9-2.1,2.1-2.5,4.4C170,18,170,18,170,18.5
						c0.5-0.5,0.5-0.5,0.9-0.5c0.5-0.5,0.9-0.5,1.3-0.5s0.9,0,1.8,0.5l0,0l0,0l0,0c0,0.5,0.4,0.5,0.4,0.5l0,0l0,0l0,0v0.5
						c0.5,0,0.5,0,0.5,0l0,0l0,0c0,0.4,0.5,0.4,0.5,0.4l0,0c0,0,0,0,0,0.5l0,0h0.5c0,0.5,0,0.5,0,0.5l0,0c0,0,0,0,0,0.5
						c0,0,0,0,0.4,0l0,0l0,0c0,0,0,0,0,0.4l0,0l0,0c0,0.5,0.5,0.5,0.5,0.5c0.9,2.1,1.3,4.8,1.8,7.3c0,0.5,0,0.9,0.4,1.3
						c0,0.5,0,0.9,0,1.8c0,1.3,0,2.6,0,3.9v0.4v0.3c0,0.5,0,0.5,0,0.5v0.5c0,0,0,0,0,0.4c0,0,0,0-0.4,0l0,0c0,0,0,0,0,0.5
						c0,0,0,0,0,0.5l0,0c0,0.5,0,0.5,0,0.5v0.4l0,0c0,0.5-0.5,1.3-0.5,1.8c0.5-0.5,0.9-0.9,1.3-1.8l0,0c0.4-0.9,0.4-1.3,0.9-2.1
						c0-0.4,0-0.9,0.5-1.6c0,0,0,0,0-0.5l0,0l0,0l0,0c0-0.5,0-0.5,0-0.9l0,0c0,0,0,0,0-0.5c0,0,0,0,0.4,0c0-0.5,0-0.5,0-0.5v-0.4
						l0,0c0-0.5,0-0.5,0-0.5l0,0c0,0,0,0,0-0.5l0,0c0,0,0,0,0-0.5l0,0l0,0c0-0.4,0-0.4,0-0.4s0,0,0-0.5l0,0v-0.5l0,0l0,0l0,0
						c0-0.5,0-0.9,0-0.9c0-0.5,0-0.5,0-0.5c0-0.5,0-0.9,0-0.9c0-0.5,0-0.5,0-0.5s0,0,0-0.4l0,0c0-2.1-0.4-3.9-0.9-5.7l0,0l0,0v-0.4
						c0-0.5-0.5-1.3-0.5-1.8s-0.4-1.3-0.4-1.8l0,0l0,0c-0.5-0.4-0.5-0.4-0.5-0.9c0,0-0.5-0.4-0.5-0.9c-1.3-2.1-2.5-3.4-3.8-3l0,0
						L174.3,13.3L174.3,13.3z"/>
					<polygon class="st14" points="169.5,56.6 169.1,56.6 167,56.6 166.6,56.2 158.9,55.7 156.7,55.3 156.7,55.3 159.3,53.2 
						162.3,50.6 156.3,39.9 161,40.3 161,40.3 161.4,40.3 163.9,40.8 164.4,40.8 171.8,41.6 171.8,41.6 174.3,41.6 174.3,41.6 
						171.3,43.8 169.1,45.9 169.1,45.9 168.4,46.3 174.8,57 					"/>
					<polygon class="st15" points="174.8,57 170.9,55.3 170,54.8 170,54.8 162.7,50.6 159.7,53.2 156.7,55.3 156.7,55.3 159.3,55.7 
						166.6,56.2 167,56.6 169.1,56.6 170,56.6 					"/>
				</g>
				<path class="st16" d="M214.9,69.9c2,0.5,4.6,0.5,7,0.8c2.8,0.5,5.3,0.5,8.2,0.5c4.1,0,7.4-0.8,9-1.7c1.6-1.2,2.5-3.2,2.5-5.7
					c0-1.3-0.5-2-0.9-2.9c0-0.8-0.8-1.6-1.6-2c-0.8-0.8-1.7-1.2-3.3-1.6c-1.3-0.5-3.3-1.3-5.3-1.7c-2.5-0.5-4.6-1.3-6.6-1.6
					c-2-0.8-3.8-1.7-5.3-2.9c-1.7-0.8-2.5-2.5-3.3-4.1c-0.8-1.7-1.3-3.8-1.3-6.6c0-5.8,1.7-9.4,4.9-11.9c3.3-2.5,7.9-3.8,13.6-3.8
					c1.3,0,2.5,0,3.6,0.5c1.7,0,2.9,0,4.2,0.5c1.3,0,2.4,0.5,3.6,0.5c1.3,0.3,2,0.8,2.9,0.8c0.8,0.5,1.3,0.8,1.6,1.3
					c0.5,0.3,0.5,1.3,0.5,2v4.4c-3.3-0.3-5.7-0.8-8.2-0.8c-2-0.5-4.1-0.5-6.1-0.5c-4.2,0-6.6,0.5-8.2,1.7c-1.6,0.8-2.4,2.5-2.4,4.9
					c0,1.3,0.3,2,0.8,2.9c0.3,0.8,1.3,1.7,2,2c0.8,0.5,2,1.3,3.2,1.6c1.7,0.5,3.3,0.9,5.4,1.3c2,0.8,4.4,1.3,6.1,2
					c2,0.5,4.1,1.3,5.3,2.5c1.7,1.3,2.5,2.5,3.3,4.1c0.8,1.7,1.3,4.2,1.3,7c0,2.8-0.5,5.3-1.3,7.4c-0.8,2.5-2.5,4.1-4.1,5.3
					c-1.7,1.3-3.8,2-6.2,2.8c-2.4,0.5-4.9,0.9-7.9,0.9c-1.2,0-2.4-0.5-4.1-0.5c-1.6,0-2.8,0-4.6-0.5c-1.2,0-2.4-0.5-3.6-0.5
					c-1.3-0.3-2.5-0.8-2.9-0.8c-0.8-0.5-1.6-0.8-1.6-1.6c-0.5-0.5-0.5-0.9-0.5-1.7v-4.6l0,0L214.9,69.9L214.9,69.9z M272.7,78.5
					h-8.2c-1.7,0-2.5-0.8-2.5-2.5V26h8.2c1.6,0,2.4,0.8,2.4,2.5L272.7,78.5L272.7,78.5z M267.5,12.9c-2.5,0-4.1-0.3-4.9-1.2
					c-1.3-0.9-1.7-2.5-1.7-4.6s0.5-3.3,1.7-4.1c0.8-1.3,2.4-1.7,4.9-1.7c2,0,3.8,0.5,4.6,1.7c1.3,0.8,1.6,2,1.6,4.1
					s-0.3,3.6-1.6,4.6C271.2,12.5,269.5,12.9,267.5,12.9z M308.5,78.9c-2.9,0-5.4,0-7-0.8c-2-0.8-3.6-1.6-5.3-2v20.1h-7.9
					c-1.6,0-2.4-0.8-2.4-2.4v-35c0-3.6,0-7.7,0-11.8c0.3-4.2,0.3-8.2,0.3-12.3h-1.6c-1.7,0-2-0.8-2-2.5v-4.9c0.8,0,2-0.5,3.6-0.5
					c1.7-0.5,3.3-0.5,4.9-0.8c2,0,3.6-0.5,5.7-0.5s4.2-0.3,5.8-0.3c4.4,0,8.2,0.3,11.5,1.2c2.8,1.3,5.7,2.5,7.9,4.6
					c2,2,3.6,4.9,4.4,8.2c0.8,3.8,1.3,7.9,1.3,12.7c0,9.4-1.3,16.4-4.4,20.5C320,76.9,315,79,308.5,78.9L308.5,78.9L308.5,78.9z
					 M305.6,71.2c2,0,4.2-0.5,5.3-1.3c1.7-0.5,2.9-1.7,3.8-2.9c0.8-1.3,1.7-3.3,2-5.7c0.5-2.5,0.8-5.8,0.8-9.4
					c0-3.3-0.5-6.2-0.8-8.6c-0.5-2-1.3-4.2-2-5.8c-1.3-1.3-2.9-2.5-4.6-2.8c-2-0.8-4.4-1.3-7.4-1.3c-0.8,0-1.6,0-2.8,0
					c-1.3,0.5-2.5,0.5-3.8,0.5v34.8c1.7,0.8,2.9,1.3,4.6,1.6C301.9,70.7,303.6,71.2,305.6,71.2L305.6,71.2L305.6,71.2L305.6,71.2z"
					/>
			</g>
		</g>
	</g>
</g>
</svg>
